<svg width="80" height="58" viewBox="0 0 80 58" fill="none" xmlns="http://www.w3.org/2000/svg">
<g id="Logo" clip-path="url(#clip0_94_1025)">
<g id="Group">
<path id="Vector" d="M1.86486 57.8462V57.1286H2.86823V49.9808H0.797759V50.8789H0V49.2632H7.57871V50.8789H6.78095V49.9808H4.70842V57.1286H5.71179V57.8462H1.86486Z" fill="#857543"/>
<path id="Vector_2" d="M9.26365 55.4717L8.60776 57.1264H9.53505V57.844H6.92383V57.1264H7.88813L11.0915 49.261H12.1463L15.6724 57.1264H16.6367V57.844H12.7508V57.1264H13.7541L13.0345 55.4717H9.26365ZM9.53299 54.7786H12.7508L11.1552 51.1474L11.1162 50.8644H11.038L10.999 51.1474L9.53299 54.7786Z" fill="#857543"/>
<path id="Vector_3" d="M20.6653 49.261V49.9786H19.6619V56.9972H22.4664V55.933H23.3032V57.844H16.8184V57.1264H17.8217V49.9786H16.8184V49.261H20.6653Z" fill="#857543"/>
<path id="Vector_4" d="M28.3354 49.1196C30.961 49.1196 33.161 51.045 33.161 53.5588C33.161 56.0726 30.961 57.9979 28.3354 57.9979C25.7098 57.9979 23.5098 56.0726 23.5098 53.5588C23.5098 51.045 25.7098 49.1196 28.3354 49.1196ZM28.3354 57.3582C30.1488 57.3582 31.0371 55.562 31.0371 53.5608C31.0371 51.5596 30.1488 49.7614 28.3354 49.7614C26.5219 49.7614 25.6337 51.5576 25.6337 53.5608C25.6337 55.5641 26.5219 57.3582 28.3354 57.3582Z" fill="#857543"/>
<path id="Vector_5" d="M39.6974 49.2613V51.4429H38.8996C38.8359 50.2619 37.7667 49.659 36.8929 49.659C36.3008 49.659 35.2707 49.942 35.2707 50.879C35.2707 51.7135 35.8505 51.8673 36.4282 52.1113L38.3836 52.9069C39.0395 53.1898 40.1086 53.766 40.1086 55.2669C40.1086 56.5628 39.0148 58.0001 36.7881 58.0001C36.1836 58.0001 35.4886 57.9099 34.6785 57.2312L34.4606 57.8463H33.8438V55.5888H34.5778C34.6806 56.7576 35.723 57.4629 36.7531 57.4629C37.7174 57.4629 38.5666 56.899 38.5666 56.0256C38.5666 55.1521 37.7955 54.8712 37.2795 54.6272L35.7621 53.9854C34.2303 53.3436 33.9856 52.1503 33.9856 51.5085C33.9856 50.2249 35.1946 49.1218 36.7901 49.1218C37.446 49.1218 38.18 49.3658 38.7331 49.7759L39.0168 49.2633H39.6995L39.6974 49.2613Z" fill="#857543"/>
<path id="Vector_6" d="M45.6169 57.846V57.1283H46.6203V49.9806H44.5478V50.8787H43.75V49.2629H51.3287V50.8787H50.5309V49.9806H48.4584V57.1283H49.4618V57.846H45.6149H45.6169Z" fill="#857543"/>
<path id="Vector_7" d="M56.31 49.1196C58.9356 49.1196 61.1356 51.045 61.1356 53.5588C61.1356 56.0726 58.9356 57.9979 56.31 57.9979C53.6844 57.9979 51.4844 56.0726 51.4844 53.5588C51.4844 51.045 53.6844 49.1196 56.31 49.1196ZM56.31 57.3582C58.1235 57.3582 59.0117 55.562 59.0117 53.5608C59.0117 51.5596 58.1235 49.7614 56.31 49.7614C54.4965 49.7614 53.6083 51.5576 53.6083 53.5608C53.6083 55.5641 54.4965 57.3582 56.31 57.3582Z" fill="#857543"/>
<path id="Vector_8" d="M65.7042 49.2611V49.9787H64.7009V54.4568C64.7009 55.1232 64.6371 57.2802 67.0304 57.2802C69.2572 57.2802 69.2572 55.1499 69.2572 54.4568V49.9787H68.2538V49.2611H70.9308V49.9787H69.9274V54.4568C69.9274 55.7527 69.7609 57.9979 66.5822 57.9979C62.7599 57.9979 62.8627 55.726 62.8627 54.584V49.9767H61.8594V49.259H65.7063L65.7042 49.2611Z" fill="#857543"/>
<path id="Vector_9" d="M76.0003 49.2612C78.7801 49.2612 79.3332 50.7744 79.3332 51.7627C79.3332 53.1365 78.0338 53.7905 77.0818 53.9956V54.0714C77.3265 54.0837 77.5958 54.2006 77.713 54.4426L78.6403 56.2654C78.9755 56.9707 79.2057 57.1245 80.0035 57.227V57.7786C79.7856 57.8934 79.4381 57.9959 78.5745 57.9959C77.711 57.9959 77.3388 57.6884 76.9399 56.9174L75.8214 54.826C75.5891 54.3503 75.3588 54.377 75.1018 54.377H74.742V57.1225H75.7454V57.8401H71.8984V57.1225H72.9018V49.9747H71.8984V49.2571H76.0024L76.0003 49.2612ZM74.7399 53.7003C75.254 53.7516 77.2113 53.8418 77.2113 51.9431C77.2113 50.6596 76.4403 49.9809 75.3074 49.9809H74.742V53.7024L74.7399 53.7003Z" fill="#857543"/>
</g>
<g id="Group_2">
<path id="Vector_10" d="M49.6539 24.9637C49.6539 24.9637 49.8986 24.1435 49.6149 24.1415C48.4676 24.1333 46.7199 24.1456 46.7199 24.1456C46.101 24.9473 44.4767 27.0203 43.9277 27.133C43.9277 27.133 47.6184 26.7599 48.813 26.1078C48.813 26.1078 48.2291 26.155 47.5053 26.1078C47.5053 26.1078 48.5806 25.3963 49.1132 25.5583L48.2517 25.2979C48.2517 25.2979 47.1044 25.7757 45.8975 25.8064C46.8515 25.1831 48.5827 24.8899 49.656 24.9658L49.6539 24.9637Z" fill="#857543"/>
<path id="Vector_11" d="M55.1459 3.54312C53.3489 2.60198 51.2414 1.80027 49.025 1.1954C48.6487 1.09288 48.2478 1.1954 47.964 1.46195C47.0553 2.31697 46.1814 3.4406 45.5358 4.50681C45.9943 2.83983 46.5063 1.61368 47.0162 0.707399C44.6332 0.205048 42.1988 -0.0533042 39.9309 0.00820818C39.5238 0.0184602 39.1537 0.256308 38.9728 0.619231C38.282 2.01146 38.0928 3.45085 37.8769 5.13834C37.5253 3.63744 37.3156 1.76541 37.4513 0.209149C36.6741 0.326022 35.9298 0.488005 35.2349 0.703298C33.5365 1.2282 31.8197 1.88433 30.1975 2.72295C29.8541 2.90134 29.6279 3.24991 29.6033 3.63539C29.5148 4.99891 29.6814 6.52032 30.2221 7.76287C29.0502 6.84633 28.4169 5.32288 28.1722 3.90399C26.4163 5.06247 24.8455 6.49366 23.6283 8.27752C23.4288 8.57073 23.3939 8.94595 23.5131 9.27812C24.0436 10.7503 24.8188 11.999 25.378 12.6613C24.2019 12.0031 23.2027 11.2793 22.4522 10.3566C22.1993 10.9082 21.9773 11.4864 21.7901 12.0954C21.2617 13.7972 21.0315 15.3945 21.0273 16.8892C21.0273 17.2255 21.1898 17.5413 21.4509 17.7525C21.9464 18.1523 22.4769 18.4722 23.0197 18.708C22.4173 18.7941 21.7716 18.7613 21.126 18.6075C21.3954 20.867 22.1849 22.8682 23.2356 24.6172C23.5419 25.1278 24.1176 25.4251 24.7098 25.3636C24.8743 25.3472 25.0388 25.3226 25.2053 25.2898C24.8208 25.4907 24.4117 25.6548 23.9984 25.788C25.4027 27.7728 27.0989 29.3968 28.6163 30.6701C30.839 32.4457 30.7876 34.1127 28.5978 34.0799C29.7081 35.3204 31.1885 35.4844 32.6689 35.1605C32.4098 36.2656 32.0233 36.362 32.0562 37.0263C35.4343 41.406 39.8508 41.5495 44.2734 41.9842C42.7046 41.935 40.9837 41.9453 38.979 41.7874C34.1184 41.406 32.2905 39.4007 31.5833 37.502C30.1543 39.3474 26.3711 43.4749 32.6874 43.0833C37.9386 42.7572 45.7476 42.5173 51.0955 43.5651C51.4059 41.4593 48.8811 41.1907 48.6549 38.3222C48.6754 38.3222 48.694 38.3242 48.7145 38.3263L48.8523 38.3345L48.9489 38.2914C49.4115 38.0864 49.8803 37.8916 50.3388 37.6784C50.419 37.6599 50.5012 37.6292 50.5712 37.5779C50.6883 37.4918 50.7562 37.3872 50.7953 37.3011C50.8713 37.1268 50.8755 37.0017 50.8837 36.8869C50.8898 36.6593 50.8611 36.4707 50.8302 36.2841C50.7665 35.915 50.6616 35.5746 50.5568 35.2384L50.2401 34.2603C50.2401 34.2316 50.236 34.2214 50.2319 34.2173C50.236 34.2091 50.2381 34.205 50.2422 34.1947L50.3676 33.9651C50.4087 33.8851 50.456 33.8072 50.4951 33.6924C50.5362 33.5693 50.5239 33.4525 50.5156 33.3684L50.4992 33.1962L50.3573 33.2085C49.8577 33.2536 49.3581 33.3069 48.8584 33.3684C49.2964 33.4217 49.7323 33.4668 50.1702 33.5078C50.164 33.5242 50.1599 33.5447 50.1517 33.557C50.125 33.6042 50.0736 33.6698 50.0201 33.7354L49.8577 33.9384L49.8166 33.9897L49.796 34.0163L49.7857 34.0286C49.7857 34.0286 49.7898 34.0204 49.7734 34.0471C49.7611 34.0696 49.7487 34.0963 49.7446 34.1168C49.724 34.2152 49.7343 34.2337 49.7343 34.2665L49.7405 34.3485C49.7796 34.7258 49.8536 35.0497 49.905 35.3922C49.9584 35.7284 50.0037 36.0667 50.0283 36.3846C50.0386 36.5383 50.0407 36.6942 50.0242 36.8131C49.5781 36.9648 49.1401 37.135 48.7001 37.299C47.5713 37.176 46.4405 37.0735 45.3076 36.973C44.7237 36.9218 44.1397 36.8623 43.5558 36.8233L41.802 36.6921H41.7691H41.7567C41.7238 36.6921 41.693 36.6839 41.6642 36.6655C41.4134 36.4051 41.1543 36.1529 40.9014 35.8966C40.628 35.6259 40.3607 35.3491 40.081 35.0826L39.2442 34.2829C38.9687 34.0143 38.6767 33.758 38.395 33.4955L38.3622 33.4648C38.2265 33.3828 38.1442 33.2003 38.1812 33.0198L38.4197 32.1956C38.4567 32.0643 38.4876 31.9331 38.5246 31.8019C39.2134 32.0069 40.2887 32.2345 41.6766 32.2345C44.2035 32.2345 45.6468 32.6836 46.3151 33.7334C46.3151 33.7334 45.5564 31.482 42.6902 31.482C41.0967 31.482 39.6904 30.871 38.9111 29.8745C41.2057 29.3557 43.562 28.2916 43.562 28.2916C42.0384 26.9486 41.7896 24.3035 43.5908 22.9359C45.2397 21.7795 47.5117 20.9921 49.3087 20.5349C49.6603 21.4391 49.8762 22.3638 50.1044 23.3173C50.1784 23.6248 50.271 23.9242 50.345 24.2051C50.3779 24.3425 50.4087 24.4963 50.419 24.6213C50.4252 24.6829 50.419 24.7341 50.4108 24.771C50.4026 24.8079 50.3902 24.8325 50.3409 24.8715C50.2936 24.9105 50.2052 24.9556 50.125 25.0417C50.0427 25.1298 50.0057 25.2467 49.9913 25.3431C49.9708 25.542 50.0263 25.7122 50.0633 25.8659C50.1517 26.1797 50.2504 26.4811 50.3429 26.7866C50.5259 27.3956 50.6904 28.0127 50.8487 28.6238L51.0934 29.5239C51.1304 29.6654 51.1612 29.8089 51.1756 29.9381C51.19 30.0652 51.1798 30.1903 51.1571 30.2313C51.1325 30.262 51.1551 30.2456 51.0605 30.2743C50.9741 30.2948 50.8323 30.2948 50.6863 30.2989C50.382 30.303 50.0551 30.2928 49.7405 30.301C49.2326 30.3092 48.7227 30.3317 48.2149 30.3543C48.2252 30.2764 48.2313 30.1985 48.2437 30.1226C48.2581 30.018 48.2766 29.9155 48.2971 29.8232C48.3177 29.7269 48.3568 29.6449 48.3321 29.6695C48.3629 29.6387 48.4719 29.608 48.5665 29.5915C48.6672 29.5751 48.7741 29.5567 48.8811 29.5464C49.099 29.5198 49.319 29.5136 49.5452 29.4767V29.4009C49.3313 29.3537 49.1134 29.3065 48.8893 29.2676C48.7783 29.2491 48.6631 29.2307 48.5439 29.2266C48.4205 29.2266 48.3054 29.2122 48.1347 29.2737C48.0977 29.284 48.0319 29.3291 47.9928 29.366C47.9599 29.4029 47.927 29.446 47.9106 29.4747C47.8695 29.5403 47.8427 29.5977 47.8181 29.6551C47.7667 29.7679 47.7255 29.8786 47.6885 29.9893C47.6186 30.2108 47.559 30.4261 47.5055 30.6516L47.4192 31.0145L47.8366 31.0371C48.4719 31.0699 49.1052 31.0924 49.7405 31.1047C49.8454 31.1068 49.9502 31.1068 50.0551 31.1068C50.014 31.3057 49.9934 31.5025 49.9831 31.6994C49.9728 31.9249 49.9831 32.1484 50.0201 32.3678C49.7138 32.458 49.4074 32.5318 49.1031 32.6303C48.6775 32.7594 48.254 32.8927 47.8325 33.0383L47.8468 33.1121C48.293 33.1019 48.7371 33.0793 49.1812 33.0526C49.6254 33.0342 50.0633 32.9686 50.5095 32.9624L50.7932 32.9583L50.8055 32.5605C50.8158 32.2366 50.7624 31.9208 50.6657 31.6112C50.6123 31.441 50.5506 31.2729 50.4725 31.1047C50.5485 31.1047 50.6226 31.1047 50.7007 31.1047C50.8713 31.1006 51.0502 31.0904 51.2702 31.0289C51.3792 30.9961 51.5046 30.9448 51.6198 30.8464C51.7349 30.75 51.8254 30.6106 51.8644 30.4814C51.9446 30.221 51.9138 30.0201 51.885 29.8355C51.8521 29.6531 51.8027 29.487 51.7493 29.327C51.6383 29.0154 51.5149 28.7222 51.3812 28.431C51.1098 27.8528 50.8199 27.2869 50.5855 26.7005C50.4725 26.4073 50.3655 26.1079 50.3018 25.8085C50.2627 25.6568 50.2525 25.5092 50.2792 25.3923C50.3162 25.2693 50.3573 25.2775 50.5383 25.1934C50.6246 25.1545 50.7377 25.0704 50.7953 24.9617C50.8569 24.8571 50.8837 24.7485 50.8981 24.6542C50.9269 24.4635 50.933 24.2994 50.9227 24.1231C50.9063 23.7786 50.8384 23.4629 50.7685 23.1553C50.6184 22.534 50.4272 21.9128 50.1558 21.3181C50.0181 21.0147 49.8536 20.7194 49.6644 20.4447C50.4971 20.2458 51.2065 20.1186 51.6588 20.0674C50.8796 16.1142 48.6487 13.2375 46.1485 12.0093C44.2898 11.0948 39.3676 10.4346 34.9881 11.9211C35.2492 11.8104 35.5145 11.7038 35.7879 11.6033C39.97 10.0839 44.8717 10.3013 47.8098 12.1282C48.1121 11.6238 48.4698 11.0558 48.8687 10.4571C47.5919 9.84608 46.2472 9.37449 44.8573 9.07308C42.9883 8.66505 41.0433 8.56253 39.125 8.77782C37.2087 8.99311 35.3171 9.52007 33.5653 10.3607C31.8177 11.2014 30.1995 12.3578 28.9186 13.8423C29.667 12.8868 30.5552 12.0441 31.536 11.3183C31.1042 10.9964 30.7279 10.617 30.3722 10.2234C30.0104 9.81738 29.7102 9.36424 29.412 8.9111C28.8117 8.01096 28.2627 7.06162 27.9173 6.03437L27.9522 6.02207C28.3963 7.00216 29.0111 7.88589 29.6567 8.73476C29.9836 9.15919 30.3455 9.55287 30.6642 9.98346C30.9767 10.4079 31.2872 10.8344 31.5709 11.2896C32.1631 10.8528 32.7881 10.4592 33.4358 10.1085C34.6406 9.4565 35.9278 8.9562 37.258 8.60148C37.0421 8.18525 36.8756 7.75056 36.7296 7.30767C36.5631 6.79097 36.4726 6.25581 36.3821 5.72065C36.1971 4.65649 36.0799 3.56567 36.1807 2.48716H36.2177C36.2259 3.56362 36.4315 4.61958 36.6782 5.65914C36.8057 6.1779 36.9784 6.6864 37.0935 7.2072C37.1943 7.65624 37.2868 8.10938 37.3608 8.57278C37.916 8.42925 38.4793 8.30827 39.0468 8.21601C40.4573 7.98841 41.8986 7.931 43.3317 8.03762C43.3708 7.66445 43.4366 7.29537 43.5167 6.9304C43.6278 6.42805 43.8108 5.94415 43.9794 5.4582C44.148 4.97225 44.3309 4.48836 44.5283 4.01266C44.736 3.54107 44.956 3.06742 45.2644 2.65119L45.2952 2.67374C45.0341 3.11253 44.8655 3.59643 44.7072 4.08033C44.5468 4.56422 44.4029 5.05427 44.2713 5.54842C44.1418 6.04257 44.041 6.54492 43.8848 7.03087C43.7738 7.37329 43.6504 7.71365 43.5147 8.05197C44.0184 8.09503 44.5201 8.15654 45.0197 8.24061C46.1876 8.4354 47.3349 8.74706 48.4493 9.15714C48.5768 8.93365 48.7125 8.71631 48.8523 8.50101C49.136 8.07043 49.4794 7.68495 49.8125 7.29127C50.1455 6.89759 50.4869 6.51211 50.8446 6.13689C51.2085 5.76986 51.5827 5.40694 52.0207 5.12809L52.0412 5.15884C51.6403 5.47461 51.3072 5.86623 50.9865 6.26196C50.6637 6.65769 50.3532 7.06367 50.053 7.47581C49.7549 7.89204 49.4814 8.32468 49.1586 8.72246C49.0126 8.90084 48.8646 9.07923 48.7145 9.25351C48.9715 9.35193 49.2244 9.46061 49.4773 9.56928C51.0626 7.30767 53.1289 4.81437 55.1562 3.54517L55.1459 3.54312ZM50.0037 36.8787C49.9975 36.9013 49.9893 36.9156 49.9893 36.9054C49.9893 36.9013 49.9934 36.891 50.0037 36.8787ZM38.6459 34.8283L39.3881 35.7161C39.6349 36.0114 39.8939 36.2984 40.1448 36.5896C40.3997 36.8787 40.6485 37.1719 40.9076 37.4569L40.9302 37.4815L40.9651 37.5102C41.1831 37.6886 41.4648 37.7891 41.7485 37.7911H41.7033L43.4551 37.947C44.039 38.0044 44.6229 38.0392 45.2068 38.0864C46.2493 38.1664 47.2896 38.2422 48.3341 38.3037C46.5988 39.6632 38.9522 39.005 34.4782 34.5556C35.8311 33.9589 37.0421 33.1449 37.7926 32.62L37.6836 32.8497C37.5212 33.2146 37.6302 33.6862 37.9509 33.961L37.918 33.9302C38.1607 34.2296 38.395 34.5371 38.6459 34.8303V34.8283ZM38.0846 29.2245C37.3444 29.4972 36.5158 29.6182 35.7078 29.5587C34.8956 29.5054 34.1451 29.286 33.4522 28.9969C32.7573 28.6976 32.1034 28.3367 31.4661 27.8056C32.2618 27.5698 33.0307 27.537 33.7668 27.5473C34.5029 27.5637 35.1896 27.6334 35.8393 27.6724C36.4911 27.7154 37.1326 27.74 37.8317 27.7585C38.5308 27.7851 39.2668 27.7974 40.0851 27.9574C39.5053 28.5499 38.8289 28.9477 38.0866 29.2245H38.0846ZM33.1993 25.9234C32.2412 25.6835 31.3756 25.2693 30.5819 24.7936C29.7904 24.3076 29.0461 23.7684 28.3511 23.0651C29.3401 23.0405 30.2653 23.2148 31.1494 23.4219C32.0335 23.6351 32.8621 23.8914 33.6681 24.0882C34.4741 24.2912 35.2821 24.4553 36.1436 24.609C37.0031 24.771 37.9016 24.9125 38.8474 25.2098C37.9879 25.6958 37.0709 25.9685 36.1149 26.0956C35.1608 26.2186 34.1534 26.1653 33.2014 25.9213L33.1993 25.9234ZM36.3431 16.311C37.402 16.0588 38.5102 15.983 39.6081 16.108C40.6979 16.2372 41.8184 16.5079 42.758 17.1394C43.5825 17.6848 44.3063 18.4537 44.6661 19.362C44.8367 19.2759 45.0074 19.1898 45.1822 19.1139C46.0108 18.7633 46.8867 18.5378 47.7687 18.4373C48.6508 18.3327 49.5369 18.3409 50.4087 18.4681C49.5472 18.6546 48.7001 18.8105 47.8736 19.0176C47.0511 19.2288 46.2431 19.4707 45.4782 19.809C44.7072 20.1309 43.9752 20.5431 43.2659 21.0044C42.5566 21.4699 41.8801 21.9948 41.179 22.5279C41.6478 21.7836 42.2358 21.1151 42.9102 20.5349C43.3852 20.1227 43.9115 19.768 44.4687 19.4666C43.8539 18.7654 43.1466 18.2159 42.3633 17.7894C41.4771 17.3178 40.5354 16.8954 39.5156 16.7088C38.502 16.5202 37.4451 16.514 36.415 16.6842C35.3788 16.84 34.3713 17.1825 33.4132 17.6458L33.3762 17.5802C34.2829 17.0082 35.2863 16.5776 36.3431 16.3131V16.311ZM35.8064 21.4432C37.1655 21.8861 38.578 22.2613 40.0091 22.778C38.5143 23.0466 37.0031 23.0733 35.4878 22.897C33.9786 22.7165 32.4612 22.2839 31.0713 21.6031C29.6732 20.9306 28.4436 20.0346 27.3004 19.0934C26.1614 18.1379 25.0881 17.1353 24.0847 15.9953C25.524 16.4833 26.8522 17.1681 28.1393 17.8673C29.4244 18.5706 30.6519 19.3026 31.904 19.9034C33.1541 20.5103 34.4453 21.0085 35.8064 21.4432ZM29.6876 17.7217C28.5115 17.1968 27.4032 16.5263 26.2971 15.8722C25.7502 15.538 25.2053 15.1956 24.6522 14.8942C24.3767 14.7466 24.093 14.6112 23.8277 14.5169C23.2561 14.3119 23.3363 15.7964 23.4741 16.3725C23.6098 16.9508 23.873 17.5003 24.2102 18.0047C24.8804 19.0217 25.8221 19.8705 26.8255 20.623L28.5074 21.884L26.4986 21.2894C26.2333 21.2115 25.9249 21.191 25.8201 21.2484C25.7789 21.2751 25.7769 21.271 25.7584 21.3468C25.744 21.4186 25.7584 21.5396 25.7933 21.6626C25.9475 22.1711 26.3197 22.6899 26.7124 23.1471C27.5143 24.078 28.5156 24.8551 29.595 25.4825L31.9636 26.8563L29.3545 26.0566C29.0111 25.9521 28.6143 25.868 28.3717 25.9275C28.2606 25.9726 28.2668 25.9562 28.2545 26.073C28.2565 26.1899 28.3182 26.3539 28.4004 26.5057C28.7479 27.127 29.3154 27.6785 29.9055 28.1542C31.098 29.1179 32.5167 29.8294 34.0464 30.1698C33.2651 30.0918 32.4941 29.8889 31.7601 29.5956C31.0261 29.3024 30.3167 28.9313 29.6649 28.472C29.0214 28.0025 28.3943 27.4899 27.9378 26.764C27.8309 26.5774 27.7261 26.3765 27.6993 26.1017C27.689 25.9664 27.7117 25.7921 27.8145 25.6445C27.9173 25.4969 28.0694 25.4149 28.1989 25.3738C28.2051 25.3738 28.2092 25.3738 28.2133 25.3697C27.469 24.8694 26.7741 24.2953 26.1634 23.6207C25.7275 23.1122 25.3102 22.5832 25.0778 21.8635C25.0264 21.679 24.9832 21.4781 25.0182 21.232C25.0388 20.9901 25.23 20.6866 25.4849 20.5759C25.5034 20.5677 25.5219 20.5636 25.5384 20.5554C24.8085 19.928 24.1341 19.2226 23.5995 18.3922C23.2417 17.8222 22.9559 17.1886 22.8161 16.514C22.6722 15.8394 22.6845 15.1382 22.847 14.4677C22.8737 14.3631 22.9169 14.2463 23.0073 14.1335C23.0958 14.0187 23.2438 13.9387 23.3754 13.912C23.6406 13.8669 23.8277 13.9326 24.0004 13.99C24.3397 14.1171 24.6234 14.2832 24.9031 14.4575C25.4561 14.8081 25.9763 15.1854 26.5027 15.5544C27.5369 16.3151 28.5917 17.041 29.6834 17.7197L29.6876 17.7217Z" fill="#857543"/>
</g>
</g>
<defs>
<clipPath id="clip0_94_1025">
<rect width="80" height="58" fill="white"/>
</clipPath>
</defs>
</svg>
