<svg width="300" height="290" viewBox="0 0 300 290" fill="none" xmlns="http://www.w3.org/2000/svg">
<path d="M113.024 0.926219C92.9748 -1.31125 73.9382 0.995634 64.5586 3.05521C64.5586 3.05521 145.085 27.9212 145.399 90.9968C93.3343 -15.1098 12.7501 96.5126 12.7501 96.5126C27.371 94.074 69.2828 86.663 95.8854 94.9418C114.086 100.606 130.251 121.204 129.494 120.88C83.9932 127.691 -8.94524 335.845 1.15307 354.802C10.391 369.475 21.526 366.132 32.8847 360.556C42.952 315.321 105.124 118.949 153.742 141.041C153.749 141.045 153.756 141.041 153.763 141.044C157.833 143.13 161.548 146.39 161.318 150.684C160.882 158.864 154.712 171.599 154.874 180.961C155.249 202.686 158.287 210.58 163.058 218.699C177.176 212.053 192.954 184.007 197.181 169.004C208.465 176.103 226.181 191.565 236.618 242.547C249.587 197.419 241.642 159.708 204.764 139.083C222.296 133.097 290.791 181.682 297.323 205.079C310.177 165.756 254.277 109.302 203.164 106.009C213.203 104.35 223.573 108.861 234.628 101.801C249.463 92.3297 266.41 84.6574 282.344 76.1524C234.859 46.4533 187.496 52.879 181.661 77.2215C184.85 22.0595 147.43 4.76744 113.024 0.926219Z" fill="url(#paint0_linear_551_774)"/>
<defs>
<linearGradient id="paint0_linear_551_774" x1="170.438" y1="7.6051" x2="127.315" y2="378.229" gradientUnits="userSpaceOnUse">
<stop stop-color="#001641"/>
<stop offset="1" stop-color="#001641" stop-opacity="0"/>
</linearGradient>
</defs>
</svg>
