<svg width="339" height="426" viewBox="0 0 339 426" fill="none" xmlns="http://www.w3.org/2000/svg">
<path d="M156.264 13.9431C177.737 4.49108 200.126 0.901478 211.574 0.254411C211.574 0.254411 132.5 57.5147 160.631 134.271C171.103 -12.1564 311.875 96.4269 311.875 96.4269C294.378 98.3736 244.031 103.443 217.937 122.437C200.084 135.433 191.258 165.892 191.961 165.244C246.062 158.24 444.279 379.982 441.515 406.411C437.781 427.344 423.785 427.021 408.529 424.059C376.813 372.469 218.418 154.713 173.874 197.888C173.867 197.894 173.857 197.892 173.851 197.898C170.229 201.799 167.535 207.009 169.731 212.15C173.915 221.944 186.585 235.348 190.63 246.779C200.02 273.305 200.178 283.919 198.494 295.387C179.661 292.053 149.302 263.268 137.788 246.457C128.339 258.873 115.454 283.611 126.772 349.071C91.8506 298.586 83.731 250.091 115.772 212.642C93.4092 211.255 38.5377 293.299 41.7775 323.926C9.60636 280.456 46.8001 193.08 102.632 171.913C90.6247 173.268 81.0332 182.232 65.4479 177.366C44.5348 170.838 22.0654 167.206 0.356255 162.221C40.1959 110.184 96.2101 102.087 113.746 129.708C85.2601 63.7458 119.415 30.1654 156.264 13.9431Z" fill="url(#paint0_linear_551_773)"/>
<defs>
<linearGradient id="paint0_linear_551_773" x1="11.4922" y1="139.138" x2="354.213" y2="169.266" gradientUnits="userSpaceOnUse">
<stop stop-color="#001641"/>
<stop offset="1" stop-color="#001641" stop-opacity="0"/>
</linearGradient>
</defs>
</svg>
