<svg width="189" height="164" viewBox="0 0 189 164" fill="none" xmlns="http://www.w3.org/2000/svg">
<path d="M150.804 3.67553C162.868 7.14466 173.376 12.9993 178.356 16.4173C178.356 16.4173 126.51 11.6597 112.853 48.034C165.608 -0.914363 188.328 82.7283 188.328 82.7283C180.4 77.8463 157.764 63.6089 140.623 62.0742C128.895 61.0242 115.153 69.0875 115.66 69.0801C140.498 83.8232 149.733 226.182 139.848 234.738C131.375 241.023 125.655 236.446 120.282 230.526C124.129 201.995 130.155 73.7523 97.3408 74.9712C97.3361 74.9714 97.3325 74.9674 97.3279 74.9676C94.5307 75.2063 91.6874 76.2077 90.9026 78.7437C89.4073 83.5745 90.2521 92.399 88.158 97.7703C83.3005 110.235 79.8581 114.075 75.3668 117.634C68.6281 110.44 65.5024 90.4854 66.2651 80.8123C58.2278 82.2339 44.6873 86.9608 27.7641 113.943C29.9113 84.7844 42.5588 64.8799 68.2755 61.7206C59.4236 54.0972 9.4632 65.9037 0.689768 77.8724C1.66329 52.0959 46.0262 32.7511 76.266 42.9888C70.8193 39.6453 63.8635 39.7889 58.9832 33.0838C52.4342 24.0869 44.2801 15.628 36.8895 6.9286C70.6745 1.04549 96.6706 16.0082 94.8421 31.4608C104.784 -1.17267 130.102 -2.27692 150.804 3.67553Z" fill="url(#paint0_linear_551_775)"/>
<defs>
<linearGradient id="paint0_linear_551_775" x1="116.2" y1="-6.10216" x2="53.4732" y2="215.917" gradientUnits="userSpaceOnUse">
<stop stop-color="#001641"/>
<stop offset="1" stop-color="#001641" stop-opacity="0"/>
</linearGradient>
</defs>
</svg>
