<svg width="15" height="15" viewBox="0 0 15 15" fill="none" xmlns="http://www.w3.org/2000/svg">
<path d="M0.402292 2.40045C0.402292 1.84816 0.850007 1.40045 1.40229 1.40045L1.72957 1.40045C2.2815 1.40045 2.72907 1.84762 2.72957 2.39955L2.73693 10.6152L12.0696 1.28259C12.4601 0.892067 13.0932 0.892067 13.4838 1.28259L13.7195 1.51829C14.11 1.90882 14.11 2.54198 13.7195 2.93251L4.38684 12.2651L12.6025 12.2725C13.1545 12.273 13.6016 12.7206 13.6016 13.2725L13.6016 13.5998C13.6016 14.1521 13.1539 14.5998 12.6016 14.5998L1.40229 14.5998C0.85001 14.5998 0.402295 14.1521 0.402296 13.5998L0.402292 2.40045Z" fill="#06266F"/>
</svg>
