<svg width="29" height="28" viewBox="0 0 29 28" fill="none" xmlns="http://www.w3.org/2000/svg">
<path d="M15.2065 5.37377C14.8159 4.98325 14.1828 4.98325 13.7922 5.37377L13.5608 5.60519C13.1705 5.99547 13.1703 6.62814 13.5602 7.01877L19.3643 12.8333H6.16602C5.61373 12.8333 5.16602 13.281 5.16602 13.8333V14.1667C5.16602 14.7189 5.61373 15.1667 6.16602 15.1667H19.3643L13.5602 20.9812C13.1703 21.3718 13.1705 22.0045 13.5608 22.3948L13.7922 22.6262C14.1828 23.0167 14.8159 23.0167 15.2065 22.6262L23.1256 14.7071C23.5161 14.3166 23.5161 13.6834 23.1256 13.2929L15.2065 5.37377Z" fill="white"/>
</svg>
