<svg width="78" height="78" viewBox="0 0 78 78" fill="none" xmlns="http://www.w3.org/2000/svg">
<g id="icon:flight-international">
<path id="Vector" d="M37.4447 9.31061C38.4775 9.18258 39.5221 9.18235 40.5549 9.30994C45.6075 17.4584 48.4212 26.8012 48.7117 36.3907H29.2883C29.5788 26.8014 32.3924 17.4589 37.4447 9.31061ZM9.34354 36.3907C9.89731 30.3946 12.2429 24.7039 16.0759 20.0642C19.8557 15.4889 24.9059 12.1487 30.5801 10.4641C26.4718 18.5046 24.1895 27.3587 23.8985 36.3907H9.34354ZM42.7192 71.1054C42.4621 69.9451 41.4397 69.0661 40.2627 68.9487C39.9891 68.9214 39.7019 68.8924 39.4127 68.8632C38.959 68.8174 38.5004 68.7712 38.082 68.7302C37.1077 68.6347 36.2008 68.0976 35.7227 67.26C31.2776 59.4731 29.5503 50.8772 29.2881 41.8047H71.3643C72.8764 41.8047 74.2 40.6358 74.2 39.0977C74.2 32.1166 72.1356 25.2922 68.2679 19.4876C64.4001 13.6829 58.9027 9.15863 52.4706 6.48697C46.0386 3.8153 38.961 3.11626 32.1327 4.47827C25.3045 5.84028 19.0324 9.20215 14.1097 14.1387C9.18689 19.0752 5.83451 25.3646 4.47635 32.2116C3.1182 39.0585 3.81525 46.1556 6.47938 52.6053C9.14352 59.0551 13.6551 64.5679 19.4437 68.4465C21.9705 70.1395 25.4695 71.4453 29.177 72.3814C32.8873 73.3182 36.8207 73.8882 40.2262 74.1027C41.8641 74.2058 43.0704 72.69 42.7192 71.1054ZM54.1015 36.3907C53.8096 27.3579 51.5257 18.5033 47.4155 10.4628C53.0917 12.1466 58.1437 15.4873 61.9246 20.0638C65.7576 24.7036 68.1031 30.3945 68.6565 36.3907H54.1015ZM23.8986 41.8047C24.1907 50.8374 26.4745 59.692 30.5845 67.7325C24.9085 66.0484 19.8566 62.7076 16.0759 58.1312C12.2429 53.4915 9.89731 47.8007 9.34354 41.8047H23.8986Z" fill="#8193BD" stroke="#8193BD" stroke-width="0.4"/>
<path id="Vector_2" d="M62.5333 68.0667V60.2954L70.871 63.6305C72.4655 64.2683 74.2 63.094 74.2 61.3766C74.2 60.4572 73.6805 59.6167 72.8581 59.2055L62.5333 54.0431V48.3333C62.5333 47.6615 62.2664 47.0171 61.7913 46.542C61.3162 46.0669 60.6719 45.8 60 45.8C59.3281 45.8 58.6838 46.0669 58.2087 46.542C57.7336 47.0171 57.4667 47.6615 57.4667 48.3333V54.0431L47.1419 59.2055C46.3195 59.6167 45.8 60.4572 45.8 61.3766C45.8 63.094 47.5345 64.2683 49.129 63.6305L57.4667 60.2954V68.0667L53.3745 71.1358C53.0128 71.407 52.8 71.8327 52.8 72.2848C52.8 73.2651 53.7604 73.9573 54.6904 73.6473L59.1146 72.1726C59.6893 71.981 60.3107 71.981 60.8854 72.1726L65.3096 73.6473C66.2396 73.9573 67.2 73.2651 67.2 72.2848C67.2 71.8327 66.9872 71.407 66.6255 71.1358L62.5333 68.0667Z" fill="#8193BD" stroke="#8193BD" stroke-width="0.4"/>
</g>
</svg>
