<svg width="106" height="63" viewBox="0 0 106 63" fill="none" xmlns="http://www.w3.org/2000/svg">
<g id="fa:handshake-o">
<path id="Vector" d="M12.1667 37.8529C13.3009 37.8529 14.0949 37.4499 14.5486 36.6439C15.0023 35.8378 15.0023 35.0318 14.5486 34.2258C14.0949 33.4198 13.3009 33.0168 12.1667 33.0168C11.0324 33.0168 10.2384 33.4198 9.78472 34.2258C9.33102 35.0318 9.33102 35.8378 9.78472 36.6439C10.2384 37.4499 11.0324 37.8529 12.1667 37.8529ZM74.8203 35.6615C74.5368 35.3341 73.9909 34.7044 73.1827 33.7724C72.3746 32.8405 71.7862 32.1604 71.4175 31.7322C71.0489 31.304 70.5101 30.6869 69.8012 29.8808C69.0923 29.0748 68.4897 28.4073 67.9935 27.8784C67.4973 27.3494 66.923 26.7575 66.2708 26.1026C65.6186 25.4477 64.9806 24.8306 64.3568 24.2513L59.0399 29.5408C56.6863 31.9085 53.7302 33.0671 50.1714 33.0168C46.6127 32.9664 43.6991 31.7322 41.4306 29.3141C39.8142 27.5761 39.0132 25.5863 39.0273 23.3445C39.0415 21.1028 39.8709 19.1255 41.5156 17.4127L49.0443 9.62956C48.4204 9.35249 47.6973 9.14468 46.875 9.00615C46.0527 8.86761 45.3792 8.79205 44.8546 8.77945C44.33 8.76686 43.5289 8.77316 42.4514 8.79835C41.3738 8.82353 40.6791 8.83613 40.3672 8.83613C37.7584 8.83613 35.5182 9.66734 33.6467 11.3298L26.9262 17.2994H20.3333V37.8529C20.4751 37.8529 20.7729 37.8466 21.2266 37.834C21.6803 37.8214 21.9922 37.8214 22.1623 37.834C22.3325 37.8466 22.6089 37.8718 22.9918 37.9096C23.3746 37.9474 23.6652 38.004 23.8637 38.0796C24.0622 38.1552 24.3103 38.2622 24.6081 38.4007C24.9058 38.5393 25.1681 38.7093 25.395 38.9108L38.0278 49.9432C41.2888 52.7391 44.5072 54.137 47.6832 54.137C49.895 54.137 51.6672 53.5451 53 52.3613C54.6163 52.865 56.2114 52.7643 57.7852 52.059C59.3589 51.3538 60.3869 50.2833 60.8689 48.8475C62.9673 48.9987 64.7679 48.4445 66.2708 47.1851C66.838 46.7317 67.3484 46.1587 67.8021 45.466C68.2558 44.7733 68.4543 44.1373 68.3976 43.558C68.6811 43.8099 69.2908 43.9358 70.2266 43.9358C71.4459 43.9358 72.5376 43.6714 73.5017 43.1424C74.4659 42.6135 75.1677 41.946 75.6072 41.14C76.0467 40.3339 76.2169 39.4335 76.1176 38.4385C76.0184 37.4436 75.5859 36.5179 74.8203 35.6615ZM81.5833 37.8529H85.6667V18.5084H81.7109L75.033 11.7076C73.1615 9.79328 70.7653 8.83613 67.8446 8.83613H60.7413C58.2176 8.83613 56.1476 9.67993 54.5313 11.3675L45.6415 20.5486C44.8475 21.3798 44.4505 22.3244 44.4505 23.3823C44.4505 24.4402 44.8333 25.3848 45.599 26.216C46.8183 27.5006 48.3779 28.1555 50.2778 28.1806C52.1777 28.2058 53.7514 27.5887 54.9991 26.3293L63.2083 18.0928C63.9172 17.5135 64.6758 17.2427 65.4839 17.2805C66.2921 17.3182 66.9585 17.6583 67.4831 18.3006C68.0077 18.9429 68.1282 19.6544 67.8446 20.4353C68.2983 20.9139 69.0923 21.7073 70.2266 22.8156C71.3608 23.9238 72.2115 24.7802 72.7786 25.3848C73.601 26.2915 74.7707 27.6202 76.2878 29.3708C77.8048 31.1214 78.7193 32.1856 79.0312 32.5634C80.5058 34.2258 81.3565 35.989 81.5833 37.8529ZM93.8333 37.8529C94.9676 37.8529 95.7616 37.4499 96.2153 36.6439C96.669 35.8378 96.669 35.0318 96.2153 34.2258C95.7616 33.4198 94.9676 33.0168 93.8333 33.0168C92.6991 33.0168 91.9051 33.4198 91.4514 34.2258C90.9977 35.0318 90.9977 35.8378 91.4514 36.6439C91.9051 37.4499 92.6991 37.8529 93.8333 37.8529ZM102 16.0903V40.271C102 40.9259 101.731 41.4926 101.192 41.9712C100.653 42.4497 100.015 42.689 99.2778 42.689H80.8177C80.0521 44.3263 78.8895 45.6675 77.3299 46.7128C75.7703 47.7581 73.998 48.4067 72.013 48.6586C71.0773 49.8677 69.9359 50.8941 68.589 51.7379C67.242 52.5817 65.7888 53.1547 64.2292 53.457C63.0382 54.7919 61.5566 55.8184 59.7843 56.5362C58.012 57.2541 56.1901 57.5626 54.3186 57.4619C52.6172 58.3183 50.8307 58.8158 48.9592 58.9543C47.0877 59.0928 45.2799 58.9165 43.536 58.4253C41.7921 57.9342 40.1332 57.2604 38.5595 56.404C36.9857 55.5476 35.5182 54.5275 34.1571 53.3436L21.9497 42.689H6.72222C5.98495 42.689 5.34693 42.4497 4.80816 41.9712C4.26939 41.4926 4 40.9259 4 40.271V14.8813C4 14.2264 4.26939 13.6597 4.80816 13.1811C5.34693 12.7025 5.98495 12.4632 6.72222 12.4632H24.6293C25.0263 12.1106 25.6927 11.5061 26.6285 10.6497C27.5642 9.79328 28.2377 9.18876 28.6489 8.83613C29.06 8.48349 29.6839 7.97973 30.5204 7.32484C31.3569 6.66995 32.0729 6.19767 32.6684 5.908C33.2639 5.61834 33.987 5.29719 34.8377 4.94456C35.6884 4.59192 36.5674 4.34634 37.4748 4.2078C38.3822 4.06927 39.3464 4 40.3672 4H45.3438C48.151 4 50.7173 4.70527 53.0425 6.11581C55.3678 4.70527 57.934 4 60.7413 4H67.8446C68.8371 4 69.787 4.07556 70.6945 4.22669C71.6019 4.37782 72.4029 4.56044 73.0977 4.77454C73.7924 4.98864 74.5226 5.32238 75.2882 5.77577C76.0538 6.22915 76.6848 6.61957 77.181 6.94702C77.6772 7.27446 78.2869 7.77193 79.01 8.43941C79.7331 9.1069 80.286 9.63585 80.6688 10.0263C81.0517 10.4167 81.633 11.0212 82.4128 11.8398C83.1926 12.6584 83.781 13.2692 84.178 13.6723H99.2778C100.015 13.6723 100.653 13.9115 101.192 14.3901C101.731 14.8687 102 15.4354 102 16.0903Z" fill="#8193BD"/>
</g>
</svg>
