<svg width="71" height="71" viewBox="0 0 71 71" fill="none" xmlns="http://www.w3.org/2000/svg">
<g id="Frame 738001151">
<path id="Union" fill-rule="evenodd" clip-rule="evenodd" d="M31.0979 16.7821V5.00935C33.7291 5.05874 37.017 5.31673 40.1474 6.06689C44.4183 7.09036 47.7655 8.87513 49.262 11.6171L52.2184 18.039L59.1825 34.0104H56.0202C54.0872 34.0104 52.5202 35.5774 52.5202 37.5104V39.0979C52.5059 39.3756 52.4985 39.6825 52.4985 40.0216C52.4985 41.9425 53.6178 42.4998 54.9985 42.4998C56.3792 42.4998 57.4985 41.9425 57.4985 40.0216C57.4985 39.842 57.4964 39.6714 57.4923 39.5094H57.5202V39.0104H61.473C63.9952 39.0104 65.6893 36.4234 64.6812 34.1114L56.7916 16.0174L56.7814 15.9942L56.7708 15.9711L53.7708 9.45461L53.7402 9.38815L53.7058 9.32359C51.1861 4.59921 46.0078 2.32971 41.3126 1.20455C36.5587 0.065356 31.6373 -0.0616357 28.6141 0.0198996C24.3628 -0.145952 17.9574 0.692407 12.2579 3.80029C6.40974 6.98922 1.30161 12.5914 0.192103 21.7131L0.185799 21.7649L0.181664 21.817C-0.174391 26.2989 0.21867 30.3522 1.93237 34.4747C3.57212 38.4193 6.35082 42.2574 10.4994 46.5245V65.4999C10.4994 68.5375 12.9618 70.9999 15.9994 70.9999H40.9992C44.0368 70.9999 46.4992 68.5375 46.4992 65.4999V58.0043H49.4992V57.9999C52.3754 57.6609 52.351 53.5034 49.4985 53V53.0043H44.9992C43.0662 53.0043 41.4992 54.5713 41.4992 56.5043V65.4999C41.4992 65.7761 41.2754 65.9999 40.9992 65.9999H15.9994C15.7233 65.9999 15.4994 65.7761 15.4994 65.4999V45.9136C15.4994 44.9734 15.1194 44.0907 14.4843 43.4473C10.34 39.2491 7.90386 35.8139 6.54935 32.5555C5.21921 29.3557 4.85876 26.1495 5.16183 22.2655C6.05878 15.0235 9.99982 10.7266 14.6516 8.19008C18.4513 6.11812 22.7193 5.23875 26.0979 5.04334V16.74C20.6208 17.8521 16.4985 22.6945 16.4985 28.4998C16.4985 35.1272 21.8711 40.4998 28.4985 40.4998C30.9187 40.4998 33.1716 39.7833 35.0566 38.5509L59.5935 57.9764C59.5311 58.308 59.4985 58.6501 59.4985 58.9998C59.4985 62.0374 61.9609 64.4998 64.9985 64.4998C68.036 64.4998 70.4985 62.0374 70.4985 58.9998C70.4985 55.9622 68.036 53.4998 64.9985 53.4998C64.1602 53.4998 63.3658 53.6873 62.6548 54.0227L38.6005 34.9793C39.8017 33.1104 40.4985 30.8865 40.4985 28.4998C40.4985 22.765 36.4756 17.9697 31.0979 16.7821Z" fill="#8193BD"/>
</g>
</svg>
