<svg width="66" height="70" viewBox="0 0 66 70" fill="none" xmlns="http://www.w3.org/2000/svg">
<g id="Frame 738001103">
<path id="Vector" d="M28.4312 31.4493C32.2014 31.4493 35.8171 29.9529 38.483 27.2893C41.1489 24.6258 42.6466 21.0132 42.6466 17.2464C42.6466 13.4795 41.1489 9.86695 38.483 7.20339C35.8171 4.53983 32.2014 3.04346 28.4312 3.04346C24.6611 3.04346 21.0453 4.53983 18.3794 7.20339C15.7135 9.86695 14.2158 13.4795 14.2158 17.2464C14.2158 21.0132 15.7135 24.6258 18.3794 27.2893C21.0453 29.9529 24.6611 31.4493 28.4312 31.4493Z" stroke="#8193BD" stroke-width="6" stroke-linecap="round" stroke-linejoin="round"/>
<path id="Vector_2" d="M3.0459 60.2618V56.9145C3.04504 52.9612 4.09722 49.072 6.10449 45.6088C8.11176 42.1457 11.0089 39.2213 14.5261 37.1078C18.0433 34.9943 22.0663 33.7605 26.2206 33.5212C30.3749 33.2819 34.5254 34.0449 38.2857 35.7392M59.4296 66.9565L62.9536 46.8725L50.6197 52.8977L45.3337 46.8725L40.0477 52.8977L27.7138 46.8725L31.2378 66.9565H59.4296Z" stroke="#8193BD" stroke-width="6" stroke-linecap="round" stroke-linejoin="round"/>
</g>
</svg>
