<svg width="69" height="78" viewBox="0 0 69 78" fill="none" xmlns="http://www.w3.org/2000/svg">
<g id="uiw:safety">
<path id="Vector" d="M50.362 26.5115L50.3618 26.5113C50.1026 26.2791 49.7985 26.1005 49.4678 25.9858C49.137 25.8712 48.7862 25.8227 48.4361 25.8433C48.0859 25.8638 47.7434 25.9529 47.429 26.1055C47.1147 26.258 46.8347 26.4708 46.6059 26.7316C46.6057 26.7318 46.6055 26.732 46.6053 26.7322L31.3028 43.9167L21.4869 33.3222C21.4867 33.322 21.4866 33.3218 21.4864 33.3217C21.2523 33.066 20.9682 32.8592 20.6513 32.7133C20.3341 32.5672 19.9903 32.485 19.6403 32.4713C19.2903 32.4576 18.941 32.5127 18.613 32.6335C18.285 32.7543 17.9848 32.9383 17.7305 33.175L17.7303 33.1751C17.2123 33.6581 16.9062 34.32 16.8788 35.0213C16.8514 35.7225 17.105 36.4055 17.5842 36.9258L17.5847 36.9264L29.3886 49.665C29.3889 49.6652 29.3892 49.6655 29.3894 49.6658C29.6382 49.9384 29.9436 50.1555 30.2848 50.3029C30.6263 50.4504 30.996 50.5248 31.3691 50.5211C31.7422 50.5175 32.1103 50.4359 32.4488 50.2817C32.7869 50.1276 33.0877 49.9046 33.3309 49.6271C33.3312 49.6268 33.3315 49.6265 33.3317 49.6262L50.579 30.2588L50.5793 30.2584C51.0484 29.7294 51.2889 29.042 51.2482 28.3415C51.2074 27.641 50.8889 26.9849 50.362 26.5115ZM9.06541 20.4152C9.06541 18.799 10.1009 17.3646 11.635 16.8558L30.6667 10.5445C33.0563 9.75199 35.6372 9.74801 38.0293 10.5331L57.354 16.8756C58.8937 17.3809 59.9346 18.8181 59.9346 20.4386V43.5465C59.9346 57.5725 48.5466 68.941 34.5 68.941C20.4534 68.941 9.06541 57.5725 9.06541 43.5465V20.4152ZM38.177 4.99616C35.6838 4.17823 32.9938 4.18246 30.5032 5.00825L6.66248 12.9128C4.92373 13.4893 3.75 15.1151 3.75 16.9469V43.5465C3.75 60.5024 17.5191 74.25 34.5 74.25C51.4809 74.25 65.25 60.5024 65.25 43.5465V16.2321C65.25 14.8275 64.3477 13.5819 63.0131 13.1441L38.177 4.99616Z" fill="#8193BD" stroke="#8193BD" stroke-width="0.5"/>
</g>
</svg>
