<svg width="34" height="33" viewBox="0 0 34 33" fill="none" xmlns="http://www.w3.org/2000/svg">
<path d="M14.1211 3.93223C15.0439 2.03065 15.5053 1.07986 16.1344 0.777861C16.6816 0.515172 17.3184 0.515172 17.8656 0.777861C18.4947 1.07986 18.9561 2.03065 19.8789 3.93223L22.0727 8.45271C22.3456 9.01508 22.482 9.29626 22.6834 9.514C22.8616 9.70676 23.076 9.86255 23.3144 9.97249C23.5837 10.0967 23.8933 10.1395 24.5125 10.2253L29.4896 10.9148C31.5833 11.2049 32.6301 11.3499 33.1117 11.8548C33.5307 12.2941 33.7275 12.8997 33.6467 13.5013C33.5539 14.1929 32.7922 14.9255 31.2689 16.3908L27.6476 19.8741C27.197 20.3075 26.9718 20.5241 26.8269 20.7829C26.6987 21.0119 26.6168 21.264 26.5859 21.5247C26.551 21.8192 26.6059 22.1269 26.7156 22.7423L27.5979 27.6889C27.969 29.7697 28.1546 30.8101 27.8232 31.4242C27.5349 31.9584 27.0197 32.3327 26.4226 32.4418C25.7362 32.5672 24.8041 32.0692 22.9398 31.0732L18.5079 28.7056C17.9565 28.411 17.6809 28.2637 17.39 28.2059C17.1325 28.1547 16.8675 28.1547 16.61 28.2059C16.3191 28.2637 16.0435 28.411 15.4921 28.7056L11.0603 31.0732C9.19595 32.0692 8.26379 32.5672 7.57736 32.4418C6.98029 32.3327 6.46507 31.9584 6.1768 31.4242C5.8454 30.8101 6.03096 29.7697 6.40209 27.6889L7.28436 22.7423C7.39412 22.1269 7.449 21.8192 7.41412 21.5247C7.38324 21.264 7.30134 21.0119 7.17308 20.7829C7.0282 20.5241 6.80295 20.3075 6.35245 19.8741L2.73113 16.3908C1.20779 14.9255 0.446123 14.1929 0.35329 13.5013C0.272543 12.8997 0.46934 12.2941 0.888255 11.8548C1.36987 11.3499 2.41671 11.2049 4.51038 10.9148L9.48754 10.2253C10.1067 10.1395 10.4163 10.0967 10.6856 9.97249C10.924 9.86255 11.1384 9.70676 11.3166 9.514C11.518 9.29626 11.6544 9.01508 11.9273 8.45272L14.1211 3.93223Z" stroke="white"/>
</svg>
