<svg width="108" height="109" viewBox="0 0 108 109" fill="none" xmlns="http://www.w3.org/2000/svg">
<path fill-rule="evenodd" clip-rule="evenodd" d="M100 54.6247C100 80.1161 79.3877 100.749 54 100.749C28.6123 100.749 8 80.1161 8 54.6247C8 29.1333 28.6123 8.5 54 8.5C79.3877 8.5 100 29.1333 100 54.6247ZM108 54.6247C108 84.517 83.8234 108.749 54 108.749C24.1766 108.749 0 84.517 0 54.6247C0 24.7325 24.1766 0.5 54 0.5C83.8234 0.5 108 24.7325 108 54.6247ZM76.8209 38.3452C76.4921 38.0543 76.1059 37.8301 75.6852 37.6861C75.2645 37.5421 74.8181 37.4812 74.3724 37.507C73.9268 37.5328 73.4911 37.6448 73.0914 37.8364C72.6917 38.0279 72.3361 38.295 72.0459 38.6217L50.3066 62.7289L36.2636 47.762C35.9667 47.4416 35.606 47.182 35.2028 46.9987C34.7996 46.8153 34.3622 46.712 33.9167 46.6948C33.4712 46.6776 33.0267 46.7469 32.6096 46.8985C32.1924 47.0502 31.8112 47.2811 31.4887 47.5776C30.8282 48.1856 30.4395 49.0173 30.4047 49.8967C30.3699 50.776 30.6918 51.6338 31.3023 52.2884L47.8737 69.948C48.1894 70.2897 48.5773 70.5624 49.0116 70.7476C49.4458 70.9328 49.9162 71.0263 50.3911 71.0217C50.8659 71.0171 51.3343 70.9146 51.7645 70.721C52.1948 70.5274 52.577 70.2473 52.8855 69.8995L77.0979 43.0511C77.6954 42.3857 78.0007 41.5225 77.949 40.6441C77.8973 39.7657 77.4927 38.9412 76.8209 38.3452Z" fill="#8193BD"/>
</svg>
