<svg width="28" height="28" viewBox="0 0 28 28" fill="none" xmlns="http://www.w3.org/2000/svg">
<path id="Vector" d="M23.3761 4.61076C20.8821 2.12539 17.5567 0.744629 14.0466 0.744629C6.74927 0.744629 0.837487 6.63588 0.837487 13.9079C0.837487 16.2092 1.48409 18.5104 2.59255 20.4435L0.745117 27.2553L7.76536 25.4143C9.70516 26.4268 11.8297 26.9791 14.0466 26.9791C21.344 26.9791 27.2558 21.0879 27.2558 13.8158C27.1634 10.41 25.8702 7.09614 23.3761 4.61076ZM20.4203 18.6025C20.1431 19.3389 18.8499 20.0753 18.2033 20.1674C17.6491 20.2594 16.9101 20.2594 16.1712 20.0753C15.7093 19.8912 15.0627 19.7071 14.3237 19.3389C10.9984 17.9581 8.87382 14.6443 8.68907 14.3682C8.50433 14.184 7.3035 12.6192 7.3035 10.9623C7.3035 9.30536 8.13484 8.56895 8.41196 8.20075C8.68907 7.83254 9.05856 7.83254 9.33567 7.83254C9.52042 7.83254 9.79753 7.83254 9.98227 7.83254C10.167 7.83254 10.4441 7.74049 10.7212 8.38485C10.9984 9.0292 11.645 10.6861 11.7373 10.7782C11.8297 10.9623 11.8297 11.1464 11.7373 11.3305C11.645 11.5146 11.5526 11.6987 11.3678 11.8828C11.1831 12.0669 10.9984 12.343 10.906 12.4351C10.7212 12.6192 10.5365 12.8033 10.7212 13.0794C10.906 13.4476 11.5526 14.4602 12.5687 15.3807C13.8619 16.4853 14.878 16.8535 15.2475 17.0376C15.6169 17.2217 15.8017 17.1297 15.9864 16.9456C16.1712 16.7615 16.8178 16.0251 17.0025 15.6569C17.1873 15.2887 17.4644 15.3807 17.7415 15.4728C18.0186 15.5648 19.6813 16.3933 19.9584 16.5774C20.3279 16.7615 20.5126 16.8535 20.605 16.9456C20.6974 17.2217 20.6974 17.8661 20.4203 18.6025Z" fill="#857543"/>
</svg>
